PathFileType	4	(X/Y/Z)	s09c0102.trc
DataRate	CameraRate	NumFrames	NumMarkers	Units	OrigDataRate	OrigDataStartFrame	OrigNumFrames
200	200	4	50	mm	200	1250	2000
Frame#	Time	racr			lacr			c7			jug			rlel			rdr			llel			ldr			s2			lic			ric			lasi			rasi			rpsi			lpsi			rgt			lgt			rth1			rth2			rth3			rth4			rlfc			rmfc			rsh1			rsh2			rsh3			rsh4			rlmal			rmmal			rcal			rtoe			rmt5			lth1			lth2			lth4			lth3			llfc			lmfc			llmal			lmmal			lcal			lmt5			lsh1			lsh2			lsh3			lsh4			ltoe			SBIKE			LBIKE			RBIKE			
		X1	Y1	Z1	X2	Y2	Z2	X3	Y3	Z3	X4	Y4	Z4	X5	Y5	Z5	X6	Y6	Z6	X7	Y7	Z7	X8	Y8	Z8	X9	Y9	Z9	X10	Y10	Z10	X11	Y11	Z11	X12	Y12	Z12	X13	Y13	Z13	X14	Y14	Z14	X15	Y15	Z15	X16	Y16	Z16	X17	Y17	Z17	X18	Y18	Z18	X19	Y19	Z19	X20	Y20	Z20	X21	Y21	Z21	X22	Y22	Z22	X23	Y23	Z23	X24	Y24	Z24	X25	Y25	Z25	X26	Y26	Z26	X27	Y27	Z27	X28	Y28	Z28	X29	Y29	Z29	X30	Y30	Z30	X31	Y31	Z31	X32	Y32	Z32	X33	Y33	Z33	X34	Y34	Z34	X35	Y35	Z35	X36	Y36	Z36	X37	Y37	Z37	X38	Y38	Z38	X39	Y39	Z39	X40	Y40	Z40	X41	Y41	Z41	X42	Y42	Z42	X43	Y43	Z43	X44	Y44	Z44	X45	Y45	Z45	X46	Y46	Z46	X47	Y47	Z47	X48	Y48	Z48	X49	Y49	Z49	X50	Y50	Z50	
1250	6.2500	551.139995	1226.679103	-140.383402	539.868556	1215.705766	-440.403812	527.087282	1262.652099	-292.511711	490.050597	1125.839517	-281.310704	520.658959	1032.452663	21.478726	703.151678	884.427968	-49.155541	506.509097	993.639508	-593.822010	689.642680	876.289549	-470.638345	27.748064	1139.150293	-240.060551	147.620982	1132.614193	-403.101963	177.936178	1125.287404	-101.146280	190.936365	1074.107448	-377.645348	213.729180	1070.509089	-125.659134	64.478275	1165.860529	-184.436965	53.608206	1174.705065	-292.099611	139.601385	980.873834	-59.437989	128.651078	1029.681349	-441.182120	212.135564	862.326531	-64.102628	273.854254	799.477932	-64.953070	290.652512	712.070273	-75.419573	303.454327	814.150457	-81.496461	324.178510	619.140632	-104.037716	311.063684	599.997212	-200.927704	266.350809	538.079942	-71.669794	250.970636	450.411888	-84.044248	195.023441	383.161245	-82.400717	275.795158	442.373535	-113.683229	148.744876	292.351173	-80.119983	156.097943	297.542055	-156.688890	67.953563	292.540264	-118.162031	289.180758	149.773653	-128.794856	212.399486	177.510563	-61.458665	257.789143	979.978307	-425.714641	342.059910	977.511703	-413.691473	351.824995	1009.385709	-395.164118	419.424505	930.868695	-413.663039	502.509650	870.600858	-389.334241	510.197052	855.006241	-287.331725	304.082347	555.494873	-411.052923	317.414568	564.478870	-335.658684	223.558778	525.937148	-373.286075	387.317610	466.531809	-432.633562	452.886111	785.897917	-413.669770	424.449387	703.785581	-407.586220	357.075235	645.236707	-411.166078	445.152113	690.918056	-376.269782	478.748169	473.841677	-363.664942	-65.391695	852.346605	-241.723593	21.087733	83.874612	-442.118960	21.089290	84.035888	-44.038370	
1251	6.2550	550.512931	1225.960647	-139.641364	540.757235	1215.211751	-438.847093	527.868512	1261.920646	-290.362935	489.686943	1125.598140	-279.957016	519.724962	1031.367315	21.708071	702.848492	884.194201	-49.067080	506.833652	994.353323	-593.667755	689.702250	876.372375	-470.637846	27.689867	1139.793968	-241.496282	148.397154	1132.835826	-403.842596	176.773184	1125.909258	-101.850606	191.890342	1074.136157	-378.411416	212.707090	1071.054652	-125.883306	64.044694	1166.500904	-185.874703	53.916058	1175.177063	-293.558133	138.650944	981.771770	-59.952962	129.344581	1028.756789	-441.719993	213.398100	864.147504	-64.586294	276.096683	802.399146	-65.366215	294.082658	715.581434	-75.902027	305.641145	817.789008	-80.808235	328.771473	622.115343	-103.808481	314.628682	603.064350	-200.778617	268.240072	542.181036	-71.630334	250.205972	455.043942	-84.161453	192.350469	389.495204	-82.472987	274.624241	446.337521	-113.983694	143.451590	299.872586	-80.020475	151.231448	304.800583	-156.921346	62.687086	301.925697	-118.417934	280.801776	154.083687	-128.149442	204.398267	183.707171	-61.444333	257.868230	976.648625	-425.849857	342.002169	972.893162	-414.055514	352.326477	1004.877418	-395.517799	418.787064	925.422133	-414.005936	501.442100	864.118707	-388.334223	508.781960	847.872329	-286.853849	308.456672	545.054526	-411.191771	321.122686	554.530363	-335.788506	228.269594	512.633703	-373.783833	394.315882	459.854787	-433.301065	452.984933	777.973952	-413.378136	425.902658	695.228468	-407.219554	359.627001	635.701017	-411.158770	446.948921	682.864839	-375.968049	485.520689	470.902132	-363.949364	-65.366093	852.347116	-241.682126	21.104706	83.878783	-442.120295	21.094428	84.032738	-44.049184	
1252	6.2600	549.763579	1225.484536	-137.925375	541.699688	1214.860571	-437.105035	528.408565	1261.167432	-287.811426	489.392457	1125.253859	-278.243797	518.663536	1030.260965	22.113199	702.873644	884.117214	-48.509741	507.359400	995.140781	-593.317897	689.791279	876.447862	-470.554356	27.661353	1140.220694	-242.946785	149.310092	1132.930917	-404.740492	175.569920	1126.348109	-102.503952	192.928198	1074.092142	-379.163062	211.625638	1071.435025	-126.241454	63.560298	1166.981147	-187.301117	54.258220	1175.475879	-294.938967	137.832355	982.678399	-60.484890	129.957639	1027.403725	-442.037129	214.942224	866.226145	-64.901468	278.755121	805.586478	-65.837598	298.381044	719.131107	-76.026214	307.874725	821.353122	-82.319761	333.407511	625.043616	-103.843759	318.385135	606.516450	-200.712344	270.393749	546.452652	-71.476087	250.029150	460.154451	-83.949798	189.993511	396.124467	-82.552235	273.079577	450.417312	-115.380046	139.046688	307.866998	-79.753417	146.828465	312.535797	-157.213176	57.942266	311.696336	-118.667835	272.564130	158.931157	-128.046087	196.809326	190.438810	-61.416965	257.808745	972.613663	-426.053348	341.958094	967.520620	-414.256443	352.807164	999.545530	-396.075690	417.956461	918.765883	-413.796410	500.102262	855.880538	-388.070206	506.924642	840.100209	-286.597117	312.471373	533.819341	-411.229738	325.403678	543.828527	-334.977477	233.040673	498.585409	-373.925732	401.069998	452.287203	-433.699012	452.776160	769.171957	-413.075579	427.121741	685.750326	-406.887094	361.963003	625.319578	-411.113813	447.993502	674.275988	-375.571443	491.801314	467.308104	-364.249866	-65.351489	852.353264	-241.660335	21.097561	83.879481	-442.114688	21.088293	84.033338	-44.058145	
1253	6.2650	548.935253	1225.042593	-136.214980	542.747757	1214.587486	-435.138850	528.965043	1260.500650	-285.077673	489.138724	1124.993490	-276.386819	517.531582	1028.911414	22.739930	702.458435	884.379762	-47.834285	507.827337	996.061814	-592.893172	689.881940	876.575033	-470.328452	27.619746	1140.442614	-244.443392	150.269079	1132.747594	-405.683918	174.379237	1126.695517	-103.104030	193.958398	1073.916190	-379.964557	210.508216	1071.680150	-126.655948	63.016720	1167.305305	-188.705907	54.579101	1175.598437	-296.434086	136.995815	983.561412	-61.134083	130.610821	1025.750300	-442.267736	216.792169	868.512240	-65.159008	281.789259	808.968206	-66.338737	303.058222	723.016410	-75.972478	310.336114	825.371339	-83.232670	338.113347	628.298642	-103.415004	322.482645	610.044210	-200.388843	272.718016	551.079319	-71.257222	249.829489	465.448679	-83.975763	187.980271	403.064768	-82.630456	272.678892	455.001380	-115.368730	134.351863	316.467915	-80.622504	142.533362	320.781145	-157.443671	53.684026	322.005738	-118.959683	264.665745	164.294244	-127.909695	189.682261	197.635697	-61.430625	257.688483	967.915956	-426.239981	341.687587	961.443164	-414.556708	353.187396	993.510426	-396.797284	416.859965	911.339298	-413.592589	498.108630	847.557273	-387.632916	505.243031	831.714579	-286.482485	316.059550	522.191819	-411.568346	328.898557	532.507168	-335.310758	237.455895	484.220780	-374.122539	407.398786	444.104553	-434.028614	452.236018	759.784170	-412.731866	428.046371	675.836682	-406.532518	363.910182	614.272615	-411.037298	448.875424	664.961868	-375.079460	497.515243	462.900684	-364.658850	-65.333401	852.348477	-241.643553	21.100654	83.878938	-442.103911	21.110694	84.030154	-44.048095	
